<?xml version="1.0" encoding="UTF-8" standalone="no"?>
<!-- Generator: Adobe Illustrator 16.0.0, SVG Export Plug-In . SVG Version: 6.00 Build 0)  -->

<svg
   version="1.1"
   id="Capa_1"
   x="0px"
   y="0px"
   width="472.829px"
   height="472.829px"
   viewBox="0 0 472.829 472.829"
   style="enable-background:new 0 0 472.829 472.829;"
   xml:space="preserve"
   sodipodi:docname="clock-speed.svg"
   inkscape:version="1.2.1 (1:1.2.1+202210291244+9c6d41e410)"
   xmlns:inkscape="http://www.inkscape.org/namespaces/inkscape"
   xmlns:sodipodi="http://sodipodi.sourceforge.net/DTD/sodipodi-0.dtd"
   xmlns="http://www.w3.org/2000/svg"
   xmlns:svg="http://www.w3.org/2000/svg"><defs
   id="defs40" /><sodipodi:namedview
   id="namedview38"
   pagecolor="#505050"
   bordercolor="#eeeeee"
   borderopacity="1"
   inkscape:showpageshadow="0"
   inkscape:pageopacity="0"
   inkscape:pagecheckerboard="0"
   inkscape:deskcolor="#505050"
   showgrid="false"
   inkscape:zoom="2.3179627"
   inkscape:cx="236.63021"
   inkscape:cy="236.63021"
   inkscape:window-width="3800"
   inkscape:window-height="2128"
   inkscape:window-x="40"
   inkscape:window-y="0"
   inkscape:window-maximized="1"
   inkscape:current-layer="Capa_1" />
<g
   id="g5"
   style="fill:#ffffff">
	<g
   id="Layer_8_5_"
   style="fill:#ffffff">
		<path
   d="M398.065,128.657l13.898-13.896c3.867,1.792,8.597,1.122,11.791-2.073l2.474-2.471c4.087-4.096,4.087-10.741,0-14.832    l-17.807-17.806c-4.099-4.099-10.739-4.099-14.835,0l-2.466,2.471c-4.095,4.095-4.095,10.736,0,14.832l0.551,0.542l-12.868,12.878    C345.882,77.891,303.118,57.83,255.479,53.51V40.678h1.862c9.637,0,17.434-7.805,17.434-17.43v-5.816    C274.775,7.8,266.964,0,257.341,0H215.49c-9.633,0-17.433,7.805-17.433,17.431v5.816c0,9.63,7.805,17.43,17.433,17.43h1.855    v12.767C114.664,62.627,32.405,146.157,26.613,251.12c-6.389,115.691,82.531,214.995,198.224,221.387    c3.939,0.219,7.843,0.322,11.742,0.322c111.415,0,203.498-87.206,209.638-198.551C449.253,219.286,430.73,168.025,398.065,128.657    z M418.25,272.724c-5.511,99.875-90.847,177.325-191.867,171.801C126.122,438.987,49.06,352.922,54.588,252.652    c5.325-96.482,85.117-172.066,181.667-172.066c3.39,0,6.77,0.096,10.202,0.281C346.713,86.402,423.782,172.475,418.25,272.724z     M398.331,260.883h-11.321c0.012-0.326,0.106-0.612,0.106-0.93c-0.014-12.98-10.58-23.539-23.552-23.539H272.24    c-8.315-14.423-23.989-23.836-41.088-23.836c-0.269,0-0.535,0.038-0.803,0.038V92.893    C323.129,92.893,398.331,168.105,398.331,260.883z M373.45,257.339c-0.006,5.262-4.282,9.541-9.535,9.541H263.458    c-4.099,13.778-16.865,23.825-31.969,23.825c-18.431,0-33.364-14.938-33.368-33.366c0-18.424,14.937-33.362,33.368-33.362    c15.104,0,27.871,10.052,31.974,23.839h100.444C369.167,247.815,373.444,252.083,373.45,257.339z"
   id="path2"
   style="fill:#ffffff" />
	</g>
</g>
<g
   id="g7"
   style="fill:#ffffff">
</g>
<g
   id="g9"
   style="fill:#ffffff">
</g>
<g
   id="g11"
   style="fill:#ffffff">
</g>
<g
   id="g13"
   style="fill:#ffffff">
</g>
<g
   id="g15"
   style="fill:#ffffff">
</g>
<g
   id="g17"
   style="fill:#ffffff">
</g>
<g
   id="g19"
   style="fill:#ffffff">
</g>
<g
   id="g21"
   style="fill:#ffffff">
</g>
<g
   id="g23"
   style="fill:#ffffff">
</g>
<g
   id="g25"
   style="fill:#ffffff">
</g>
<g
   id="g27"
   style="fill:#ffffff">
</g>
<g
   id="g29"
   style="fill:#ffffff">
</g>
<g
   id="g31"
   style="fill:#ffffff">
</g>
<g
   id="g33"
   style="fill:#ffffff">
</g>
<g
   id="g35"
   style="fill:#ffffff">
</g>
</svg>
