<?xml version="1.0" encoding="UTF-8" standalone="no"?>
<svg
   width="18px"
   height="18px"
   viewBox="0 0 18 18"
   version="1.1"
   id="svg4"
   sodipodi:docname="gear.svg"
   inkscape:version="1.2.2 (1:1.2.2+202212051550+b0a8486541)"
   xmlns:inkscape="http://www.inkscape.org/namespaces/inkscape"
   xmlns:sodipodi="http://sodipodi.sourceforge.net/DTD/sodipodi-0.dtd"
   xmlns="http://www.w3.org/2000/svg"
   xmlns:svg="http://www.w3.org/2000/svg">
  <defs
     id="defs8" />
  <sodipodi:namedview
     id="namedview6"
     pagecolor="#505050"
     bordercolor="#eeeeee"
     borderopacity="1"
     inkscape:showpageshadow="0"
     inkscape:pageopacity="0"
     inkscape:pagecheckerboard="0"
     inkscape:deskcolor="#505050"
     showgrid="false"
     inkscape:zoom="60.888889"
     inkscape:cx="9.0082117"
     inkscape:cy="9.0082117"
     inkscape:window-width="3800"
     inkscape:window-height="2128"
     inkscape:window-x="40"
     inkscape:window-y="0"
     inkscape:window-maximized="1"
     inkscape:current-layer="svg4" />
  <path
     fill="#494c4e"
     d="M17 7h-.76a1 1 0 0 1-.7-1.71l.53-.53a1.008 1.008 0 0 0 0-1.42l-1.41-1.41a1.008 1.008 0 0 0-1.42 0l-.51.51a.974.974 0 0 1-.73.32 1 1 0 0 1-1-1V1a1 1 0 0 0-1-1H8a1 1 0 0 0-1 1v.76a1 1 0 0 1-1 1 .974.974 0 0 1-.73-.32l-.51-.51a1.008 1.008 0 0 0-1.42 0L1.93 3.34a1.008 1.008 0 0 0 0 1.42c.19.19.4.37.58.57a.92.92 0 0 1 .25.67 1 1 0 0 1-1 1H1a1 1 0 0 0-1 1v2a1 1 0 0 0 1 1h.76a1 1 0 0 1 1 1 .92.92 0 0 1-.25.67c-.18.2-.39.38-.58.57a1.008 1.008 0 0 0 0 1.42l1.41 1.41a1.008 1.008 0 0 0 1.42 0l.51-.51a.974.974 0 0 1 .73-.32 1 1 0 0 1 1 1V17a1 1 0 0 0 1 1h2a1 1 0 0 0 1-1v-.76a1 1 0 0 1 1-1 .974.974 0 0 1 .73.32l.51.51a1.008 1.008 0 0 0 1.42 0l1.41-1.41a1.008 1.008 0 0 0 0-1.42l-.53-.53a1 1 0 0 1 .7-1.71H17a1 1 0 0 0 1-1V8a1 1 0 0 0-1-1zm-8 5a3 3 0 1 1 3-3 3 3 0 0 1-3 3z"
     id="path2"
     style="fill:#ffffff" />
</svg>
