<?xml version="1.0" encoding="UTF-8" standalone="no"?>
<svg
   width="24px"
   height="24px"
   viewBox="0 0 24 24"
   fill="none"
   version="1.1"
   id="svg6"
   sodipodi:docname="map-marker-set.svg"
   inkscape:version="1.2.2 (1:1.2.2+202212051550+b0a8486541)"
   xmlns:inkscape="http://www.inkscape.org/namespaces/inkscape"
   xmlns:sodipodi="http://sodipodi.sourceforge.net/DTD/sodipodi-0.dtd"
   xmlns="http://www.w3.org/2000/svg"
   xmlns:svg="http://www.w3.org/2000/svg">
  <defs
     id="defs10" />
  <sodipodi:namedview
     id="namedview8"
     pagecolor="#505050"
     bordercolor="#eeeeee"
     borderopacity="1"
     inkscape:showpageshadow="0"
     inkscape:pageopacity="0"
     inkscape:pagecheckerboard="0"
     inkscape:deskcolor="#505050"
     showgrid="false"
     inkscape:zoom="45.666667"
     inkscape:cx="12.043796"
     inkscape:cy="12.09854"
     inkscape:window-width="1979"
     inkscape:window-height="1478"
     inkscape:window-x="124"
     inkscape:window-y="403"
     inkscape:window-maximized="0"
     inkscape:current-layer="svg6" />
  <path
     stroke="currentColor"
     stroke-linecap="round"
     stroke-linejoin="round"
     stroke-width="2.32791"
     d="m 18.98373,16.674443 c 1.449124,0.615732 2.32791,1.423517 2.32791,2.309287 0,1.928673 -4.169287,3.491865 -9.31164,3.491865 -5.1423531,0 -9.3116399,-1.563192 -9.3116399,-3.491865 0,-0.884606 0.878786,-1.694719 2.32791,-2.309287"
     id="path2"
     style="stroke:#ffffff;stroke-opacity:1" />
  <path
     fill="currentColor"
     fill-rule="evenodd"
     d="M 11.141001,18.605445 12,17.819775 Z m 1.717998,0 0.0058,-0.0058 0.01397,-0.0163 0.05238,-0.0582 0.193217,-0.216496 a 44.451441,44.451441 0 0 0 2.732966,-3.441815 c 0.747259,-1.047559 1.513141,-2.234793 2.096283,-3.41388 0.570338,-1.152315 1.0301,-2.4198623 1.0301,-3.5919649 0,-4.1588112 -3.047234,-7.50052593 -6.98373,-7.50052593 -3.9364958,0 -6.9837299,3.34055083 -6.9837299,7.50052593 0,1.1721026 0.4597622,2.4396499 1.0301002,3.5919649 0.5831414,1.179087 1.3501877,2.366321 2.0951189,3.41388 a 44.408374,44.408374 0 0 0 2.9273468,3.658311 l 0.05238,0.0582 0.01397,0.0163 0.0058,0.0058 a 1.163955,1.163955 0 0 0 1.717998,0 z M 12,17.819775 12.858999,18.604281 Z M 12,5.0162701 A 2.32791,2.32791 0 1 0 12,9.67209 2.32791,2.32791 0 0 0 12,5.0162701 Z"
     clip-rule="evenodd"
     id="path4"
     style="fill:#d21212;stroke-width:1.16395;fill-opacity:1" />
</svg>
