<?xml version="1.0" encoding="iso-8859-1"?>
<!-- Generator: Adobe Illustrator 18.0.0, SVG Export Plug-In . SVG Version: 6.00 Build 0)  -->
<!DOCTYPE svg PUBLIC "-//W3C//DTD SVG 1.1//EN" "http://www.w3.org/Graphics/SVG/1.1/DTD/svg11.dtd">
<svg version="1.1" id="Capa_1" xmlns="http://www.w3.org/2000/svg" xmlns:xlink="http://www.w3.org/1999/xlink" x="0px" y="0px"
	 viewBox="0 0 236 236" style="enable-background:new 0 0 236 236;" xml:space="preserve">
<path d="M2.593,88.222l21.164-13.157c4.608,9.171,11.585,19.41,21.012,30.855c13.009,15.793,25.838,27.867,26.378,28.373
	l6.841,6.416l6.841-6.416c0.54-0.506,13.369-12.58,26.378-28.373c9.894-12.012,17.07-22.687,21.659-32.201l32.625,14.503L233.407,46
	v147.778L165.491,236l-94.981-42.222L2.593,236V88.222z M26.988,51c0-28.167,22.834-51,51-51s51,22.833,51,51s-51,76-51,76
	S26.988,79.166,26.988,51z M77.988,72.5c12.426,0,22.5-10.074,22.5-22.5s-10.074-22.5-22.5-22.5s-22.5,10.074-22.5,22.5
	S65.562,72.5,77.988,72.5z"/>
<g>
</g>
<g>
</g>
<g>
</g>
<g>
</g>
<g>
</g>
<g>
</g>
<g>
</g>
<g>
</g>
<g>
</g>
<g>
</g>
<g>
</g>
<g>
</g>
<g>
</g>
<g>
</g>
<g>
</g>
</svg>
