<?xml version="1.0" encoding="UTF-8" standalone="no"?>
<!-- Generator: Adobe Illustrator 19.0.0, SVG Export Plug-In . SVG Version: 6.00 Build 0)  -->

<svg
   version="1.1"
   id="Layer_1"
   x="0px"
   y="0px"
   viewBox="0 0 210 210"
   style="enable-background:new 0 0 210 210;"
   xml:space="preserve"
   sodipodi:docname="menu2.svg"
   inkscape:version="1.2.2 (1:1.2.2+202212051550+b0a8486541)"
   xmlns:inkscape="http://www.inkscape.org/namespaces/inkscape"
   xmlns:sodipodi="http://sodipodi.sourceforge.net/DTD/sodipodi-0.dtd"
   xmlns="http://www.w3.org/2000/svg"
   xmlns:svg="http://www.w3.org/2000/svg"><defs
   id="defs40" /><sodipodi:namedview
   id="namedview38"
   pagecolor="#505050"
   bordercolor="#eeeeee"
   borderopacity="1"
   inkscape:showpageshadow="0"
   inkscape:pageopacity="0"
   inkscape:pagecheckerboard="0"
   inkscape:deskcolor="#505050"
   showgrid="false"
   inkscape:zoom="5.2190476"
   inkscape:cx="105.0958"
   inkscape:cy="105.0958"
   inkscape:window-width="3800"
   inkscape:window-height="2128"
   inkscape:window-x="40"
   inkscape:window-y="0"
   inkscape:window-maximized="1"
   inkscape:current-layer="Layer_1" />
<g
   id="XMLID_2_"
   style="fill:#ffffff"
   transform="matrix(0.96361993,0,0,0.96361993,3.8199075,3.8199075)">
	<path
   id="XMLID_4_"
   d="M 75,0 H 15 C 6.716,0 0,6.716 0,15 v 60 c 0,8.284 6.716,15 15,15 h 60 c 8.284,0 15,-6.716 15,-15 V 15 C 90,6.716 83.284,0 75,0 Z"
   style="fill:#ffffff" />
	<path
   id="XMLID_6_"
   d="M 75,120 H 15 c -8.284,0 -15,6.716 -15,15 v 60 c 0,8.284 6.716,15 15,15 h 60 c 8.284,0 15,-6.716 15,-15 v -60 c 0,-8.284 -6.716,-15 -15,-15 z"
   style="fill:#ffffff" />
	<path
   id="XMLID_8_"
   d="m 195,0 h -60 c -8.284,0 -15,6.716 -15,15 v 60 c 0,8.284 6.716,15 15,15 h 60 c 8.284,0 15,-6.716 15,-15 V 15 C 210,6.716 203.284,0 195,0 Z"
   style="fill:#ffffff" />
	<path
   id="XMLID_10_"
   d="m 195,120 h -60 c -8.284,0 -15,6.716 -15,15 v 60 c 0,8.284 6.716,15 15,15 h 60 c 8.284,0 15,-6.716 15,-15 v -60 c 0,-8.284 -6.716,-15 -15,-15 z"
   style="fill:#ffffff" />
</g>
<g
   id="g7"
   style="fill:#ffffff"
   transform="matrix(0.96361993,0,0,0.96361993,3.8199075,3.8199075)">
</g>
<g
   id="g9"
   style="fill:#ffffff"
   transform="matrix(0.96361993,0,0,0.96361993,3.8199075,3.8199075)">
</g>
<g
   id="g11"
   style="fill:#ffffff"
   transform="matrix(0.96361993,0,0,0.96361993,3.8199075,3.8199075)">
</g>
<g
   id="g13"
   style="fill:#ffffff"
   transform="matrix(0.96361993,0,0,0.96361993,3.8199075,3.8199075)">
</g>
<g
   id="g15"
   style="fill:#ffffff"
   transform="matrix(0.96361993,0,0,0.96361993,3.8199075,3.8199075)">
</g>
<g
   id="g17"
   style="fill:#ffffff"
   transform="matrix(0.96361993,0,0,0.96361993,3.8199075,3.8199075)">
</g>
<g
   id="g19"
   style="fill:#ffffff"
   transform="matrix(0.96361993,0,0,0.96361993,3.8199075,3.8199075)">
</g>
<g
   id="g21"
   style="fill:#ffffff"
   transform="matrix(0.96361993,0,0,0.96361993,3.8199075,3.8199075)">
</g>
<g
   id="g23"
   style="fill:#ffffff"
   transform="matrix(0.96361993,0,0,0.96361993,3.8199075,3.8199075)">
</g>
<g
   id="g25"
   style="fill:#ffffff"
   transform="matrix(0.96361993,0,0,0.96361993,3.8199075,3.8199075)">
</g>
<g
   id="g27"
   style="fill:#ffffff"
   transform="matrix(0.96361993,0,0,0.96361993,3.8199075,3.8199075)">
</g>
<g
   id="g29"
   style="fill:#ffffff"
   transform="matrix(0.96361993,0,0,0.96361993,3.8199075,3.8199075)">
</g>
<g
   id="g31"
   style="fill:#ffffff"
   transform="matrix(0.96361993,0,0,0.96361993,3.8199075,3.8199075)">
</g>
<g
   id="g33"
   style="fill:#ffffff"
   transform="matrix(0.96361993,0,0,0.96361993,3.8199075,3.8199075)">
</g>
<g
   id="g35"
   style="fill:#ffffff"
   transform="matrix(0.96361993,0,0,0.96361993,3.8199075,3.8199075)">
</g>
</svg>
