<?xml version="1.0" encoding="UTF-8" standalone="no"?>
<!-- Generator: Adobe Illustrator 19.0.0, SVG Export Plug-In . SVG Version: 6.00 Build 0)  -->

<svg
   version="1.1"
   id="Layer_1"
   x="0px"
   y="0px"
   viewBox="0 0 365 365"
   style="enable-background:new 0 0 365 365;"
   xml:space="preserve"
   sodipodi:docname="pause.svg"
   inkscape:version="1.2.1 (1:1.2.1+202210291244+9c6d41e410)"
   xmlns:inkscape="http://www.inkscape.org/namespaces/inkscape"
   xmlns:sodipodi="http://sodipodi.sourceforge.net/DTD/sodipodi-0.dtd"
   xmlns="http://www.w3.org/2000/svg"
   xmlns:svg="http://www.w3.org/2000/svg"><defs
   id="defs41" /><sodipodi:namedview
   id="namedview39"
   pagecolor="#505050"
   bordercolor="#eeeeee"
   borderopacity="1"
   inkscape:showpageshadow="0"
   inkscape:pageopacity="0"
   inkscape:pagecheckerboard="0"
   inkscape:deskcolor="#505050"
   showgrid="false"
   inkscape:zoom="3.0027397"
   inkscape:cx="182.66652"
   inkscape:cy="182.66652"
   inkscape:window-width="3800"
   inkscape:window-height="2128"
   inkscape:window-x="40"
   inkscape:window-y="0"
   inkscape:window-maximized="1"
   inkscape:current-layer="Layer_1" />
<g
   id="g6"
   style="fill:#ffffff"
   transform="matrix(0.87182492,0,0,0.87182492,23.391952,23.391952)">
	<rect
   x="74.5"
   width="73"
   height="365"
   id="rect2"
   style="fill:#ffffff"
   y="0" />
	<rect
   x="217.5"
   width="73"
   height="365"
   id="rect4"
   style="fill:#ffffff"
   y="0" />
</g>
<g
   id="g8"
   transform="matrix(0.87182492,0,0,0.87182492,23.391952,23.391952)">
</g>
<g
   id="g10"
   transform="matrix(0.87182492,0,0,0.87182492,23.391952,23.391952)">
</g>
<g
   id="g12"
   transform="matrix(0.87182492,0,0,0.87182492,23.391952,23.391952)">
</g>
<g
   id="g14"
   transform="matrix(0.87182492,0,0,0.87182492,23.391952,23.391952)">
</g>
<g
   id="g16"
   transform="matrix(0.87182492,0,0,0.87182492,23.391952,23.391952)">
</g>
<g
   id="g18"
   transform="matrix(0.87182492,0,0,0.87182492,23.391952,23.391952)">
</g>
<g
   id="g20"
   transform="matrix(0.87182492,0,0,0.87182492,23.391952,23.391952)">
</g>
<g
   id="g22"
   transform="matrix(0.87182492,0,0,0.87182492,23.391952,23.391952)">
</g>
<g
   id="g24"
   transform="matrix(0.87182492,0,0,0.87182492,23.391952,23.391952)">
</g>
<g
   id="g26"
   transform="matrix(0.87182492,0,0,0.87182492,23.391952,23.391952)">
</g>
<g
   id="g28"
   transform="matrix(0.87182492,0,0,0.87182492,23.391952,23.391952)">
</g>
<g
   id="g30"
   transform="matrix(0.87182492,0,0,0.87182492,23.391952,23.391952)">
</g>
<g
   id="g32"
   transform="matrix(0.87182492,0,0,0.87182492,23.391952,23.391952)">
</g>
<g
   id="g34"
   transform="matrix(0.87182492,0,0,0.87182492,23.391952,23.391952)">
</g>
<g
   id="g36"
   transform="matrix(0.87182492,0,0,0.87182492,23.391952,23.391952)">
</g>
</svg>
